<svg id="Layer_1" data-name="Layer 1" xmlns="http://www.w3.org/2000/svg" xmlns:xlink="http://www.w3.org/1999/xlink" viewBox="0 0 235 95" width="235" height="95"><defs><style>.cls-1 {fill:none;}.cls-8{ clip-path:url(#clip-path-2); }.cls-4{ fill:#691223; }.cls-5{ clip-path:url(#clip-path-12);}.cls-9{ fill:#fff;}.cls-10{ clip-path:url(#clip-path-17);}.cls-11{ fill:url(#linear-gradient-2);}</style><linearGradient id="linear-gradient" x1="81.92" y1="-29.52" x2="82.58" y2="-29.52" gradientTransform="translate(-2331.57 881.31) scale(28.64)" gradientUnits="userSpaceOnUse"><stop offset="0" stop-color="#eb2727"/><stop offset="0.1" stop-color="#eb2727"/><stop offset="0.21" stop-color="#e52626"/><stop offset="0.35" stop-color="#d42425"/><stop offset="0.51" stop-color="#b82122"/><stop offset="0.69" stop-color="#911d1d"/><stop offset="0.87" stop-color="#601718"/><stop offset="1" stop-color="#3a1314"/></linearGradient><clipPath id="clip-path-17"><path class="cls-1" d="M24.9,29.5c-3.9,3-9.9.1-9.9.1s-.8,5.9,0,8.7c1.8,6.3,8.4,6.2,9.7,6.2,4.7-.1,8.6-2.7,9.8-5.9,1.8-3.6.7-9.1.7-9.1A8.73,8.73,0,0,0,30,27.6a8.12,8.12,0,0,0-5.1,1.9"/></clipPath><linearGradient id="linear-gradient-2" x1="81.92" y1="-29.51" x2="82.65" y2="-29.51" xlink:href="#linear-gradient"/></defs><title>logo-wl-glass-b</title><path id="banner" class="cls-4" d="M0,0H235V75L113.7,95,0,75Z"/><g class="cls-5"><g class="cls-8"><path class="cls-9" d="M37.1,34.1c0-1.7-.9-9.2-.9-9.2a29.64,29.64,0,0,0-11.3-2A28.43,28.43,0,0,0,13.6,25s-.9,7.6-.9,9.1c0,4.3,1.2,11.1,10.2,11.9v6.7c-3.6.2-6.5,1.1-6.5,1.8s1.3,1.9,8.4,1.7c7.6-.1,8.2-.9,8.2-1.6s-2.8-1.7-6.5-1.9V46c9.2-.9,10.6-8.2,10.6-11.9"/></g></g><g class="cls-10"><rect class="cls-11" x="14.3" y="27.6" width="22.1" height="16.9"/></g><g class="cls-8"><polygon class="cls-9" points="63.5 43.1 66.6 30.6 71 31.5 65.6 50.6 61.3 50.6 58.8 39.8 56.3 50.6 52 50.6 46.6 31.5 51.1 30.6 54.2 43.1 56.7 31.3 61 31.3 63.5 43.1"/><path class="cls-9" d="M72.5,39.7V35.8H79V46.7h1.9v3.9H72.5V46.7h1.9V39.6H72.5Zm4.2-6a2.6,2.6,0,0,1,0-5.2,2.58,2.58,0,0,1,2.6,2.6,2.65,2.65,0,0,1-2.6,2.6"/><path class="cls-9" d="M84.7,42.2a5.88,5.88,0,0,0-2.4-4.9l3.9-2a9.81,9.81,0,0,1,1.6,1.9s2.3-2.1,4.7-2.1c2.7,0,5.4,1.9,5.4,4.6v7h1.9v3.9H93.4V41.9c0-2.2-.4-2.5-1.4-2.5-1.8,0-2.8,2.5-2.8,2.5v4.7h1.9v3.9H82.7V46.6h1.9V42.2Z"/><path class="cls-9" d="M111.4,45.6l2.9,2.7a8.45,8.45,0,0,1-6.2,2.9c-4.1,0-7.1-3.5-7.1-8,0-4.1,2.9-8,7.1-8,6.3,0,7,7.5,6.4,9.3h-8.8c0,.6.7,2.7,2.5,2.7a3.7,3.7,0,0,0,3.2-1.6m-1.5-4c0-.6-.3-2.3-1.8-2.3a2.47,2.47,0,0,0-2.3,2.3Z"/><polygon class="cls-9" points="137.7 46.3 137.7 50.6 124.3 50.6 124.3 46.7 126.3 46.7 126.3 35.2 124.3 35.2 124.3 31.3 132.9 31.3 132.9 35.2 130.9 35.2 130.9 46.3 137.7 46.3"/><path class="cls-9" d="M140,39.7V35.8h6.5V46.7h1.9v3.9H140V46.7h1.9V39.6H140Zm4.2-6a2.6,2.6,0,1,1,2.6-2.6,2.65,2.65,0,0,1-2.6,2.6"/><path class="cls-9" d="M159.4,35.1c4.8,0,7.4,3.9,7.4,8s-3.2,8-7.4,8a6.75,6.75,0,0,1-4.5-1.7,12.71,12.71,0,0,1-1.4,1.6l-3.9-2a5.63,5.63,0,0,0,2.4-4.9v-12h-1.9V28.2h6.4v8a6,6,0,0,1,2.9-1.1m0,12c1.9,0,2.9-2,2.9-3.9s-1-3.9-2.9-3.9-2.9,2-2.9,3.9,1,3.9,2.9,3.9"/><path class="cls-9" d="M176.8,46.7v3.9h-8.4V46.7h1.9V42.1a5.88,5.88,0,0,0-2.4-4.9l3.9-2a12.8,12.8,0,0,1,1.6,1.9s2.5-2,4.6-2l1.1,4.3c-2.1,0-4.3,2.5-4.3,2.5v4.7h2Z"/><path class="cls-9" d="M194.6,49.1l-3.9,2s-1.1-1.1-1.4-1.5a5.43,5.43,0,0,1-3.9,1.6c-3,0-5.8-2.2-5.8-5.1,0-3.2,2.6-5,6.8-5h1.3a1.78,1.78,0,0,0-1.9-1.9,3.64,3.64,0,0,0-2,.5l-2.3-3.1a7.34,7.34,0,0,1,4.3-1.5c4,0,6.4,2.5,6.4,6v3.1a5.63,5.63,0,0,0,2.4,4.9m-8.2-5c-1.8,0-2.2,1-2.2,2s1,1.4,1.7,1.4a3.31,3.31,0,0,0,2.1-.9,12.89,12.89,0,0,1-.3-2.5Z"/><path class="cls-9" d="M204,46.7v3.9h-8.4V46.7h1.9V42.1a5.88,5.88,0,0,0-2.4-4.9l3.9-2a12.8,12.8,0,0,1,1.6,1.9s2.5-2,4.6-2l1.1,4.3c-2.1,0-4.3,2.5-4.3,2.5v4.7h2Z"/><polygon class="cls-9" points="206.8 36.3 211.2 35.1 214.7 44.9 218.2 35.1 222.5 36.3 212.6 58.3 208.7 56.6 212.2 49.7 206.8 36.3"/></g></svg>