<svg clip-rule="evenodd" fill-rule="evenodd" stroke-linejoin="round" stroke-miterlimit="2" viewBox="0 0 560 400" xmlns="http://www.w3.org/2000/svg"><g fill-rule="nonzero" transform="matrix(3.48742 0 0 3.4939 -33.9697 68.9791)"><path d="m149.209 31.181h-.597v-.244h1.492v.244h-.594v1.708h-.299z" fill="#ffffff"/><path d="m151.179 32.889-.537-1.647v1.647h-.298v-1.952h.477l.477 1.583.477-1.583h.478v1.952h-.239v-1.647l-.538 1.647z" fill="#ffffff"/><path d="m40.401 26.084c.301 0 .589.122.802.339.213.218.332.512.332.82 0 .307-.119.602-.332.819s-.501.339-.802.339h-.06c-.282-.009-.55-.127-.75-.331-.199-.204-.315-.478-.324-.766.009-.309.113-.606.299-.85.104-.119.234-.214.378-.277s.3-.093.457-.089zm0-1.459c-.661.014-1.291.289-1.759.766s-.737 1.121-.753 1.796c-.015.675.225 1.33.671 1.829s1.063.803 1.723.849h.119c.338.002.673-.064.985-.195.313-.13.597-.323.836-.568.239-.244.428-.534.556-.853s.193-.662.19-1.007c.002-.345-.062-.687-.19-1.007-.129-.319-.318-.609-.557-.853s-.523-.437-.836-.568c-.312-.13-.647-.196-.985-.194z" fill="#ff4f1f"/><path d="m38.67 42.941c.349-.007.696.058 1.02.19s.619.329.868.578c.249.25.446.548.581.877.135.328.205.681.205 1.037 0 .357-.07.71-.205 1.038-.135.329-.332.627-.581.876-.249.25-.544.447-.868.579s-.671.197-1.02.19h-2.805c-.349.007-.695-.058-1.019-.19-.325-.132-.62-.329-.868-.579-.249-.249-.447-.547-.582-.876-.135-.328-.204-.681-.204-1.038 0-.356.069-.709.204-1.037.135-.329.333-.627.582-.877.248-.249.543-.446.868-.578.324-.132.67-.197 1.019-.19zm0-1.769h-2.805c-1.13.016-2.208.486-3.001 1.307-.794.822-1.238 1.929-1.238 3.084 0 1.154.444 2.261 1.238 3.083.793.822 1.871 1.291 3.001 1.307h2.805c1.13-.016 2.208-.485 3.001-1.307.794-.822 1.239-1.929 1.239-3.083 0-1.155-.445-2.262-1.239-3.084-.793-.821-1.871-1.291-3.001-1.307z" fill="#ff4f1f"/><path d="m38.671 32.694c.349-.006.695.058 1.019.19s.619.329.868.579.447.547.581.876c.135.329.205.681.205 1.038 0 .356-.07.709-.205 1.038-.134.328-.332.626-.581.876s-.544.446-.868.578-.67.197-1.019.191h-6.626c-.349.006-.695-.059-1.02-.191-.324-.132-.619-.328-.867-.578-.249-.25-.447-.548-.582-.876-.135-.329-.204-.682-.204-1.038 0-.357.069-.709.204-1.038s.333-.626.582-.876c.248-.25.543-.447.867-.579.325-.132.671-.196 1.02-.19zm0-1.768h-6.626c-1.13.015-2.208.485-3.001 1.307-.794.821-1.238 1.929-1.238 3.083s.444 2.262 1.238 3.083c.793.822 1.871 1.292 3.001 1.307h6.626c1.129-.015 2.207-.485 3.001-1.307.793-.821 1.238-1.929 1.238-3.083s-.445-2.262-1.238-3.083c-.794-.822-1.872-1.292-3.001-1.307z" fill="#ff4f1f"/><g fill="#ffffff"><path d="m65.516 50.014v-19.148h10.567v1.89h-8.656v6.647h7.761v1.833h-7.761v6.891h8.656v1.89z"/><path d="m96.498 50.014v-19.148h10.566v1.89h-8.656v6.647h7.761v1.833h-7.761v6.891h8.656v1.89z"/><path d="m128.017 50.014v-7.928l-6.328-11.22h2.149l5.134 9.208 5.133-9.208h2.09l-6.266 11.22v7.928z"/><path d="m92.678 50.014v-19.148h-1.85v15.611l-9.253-15.611h-1.91v19.148h1.91v-15.611l9.253 15.611z"/><path d="m55.668 41.781h4.477v1.525c0 3.72-2.328 5.06-4.477 5.06s-4.477-1.341-4.477-5.06v-5.732c0-3.72 2.328-5.061 4.477-5.061 1.085-.048 2.146.329 2.968 1.055.821.725 1.339 1.744 1.449 2.848h1.85c-.102-1.609-.813-3.114-1.983-4.195-1.171-1.082-2.707-1.655-4.284-1.599-3.821 0-6.328 2.805-6.328 6.952v5.732c0 4.146 2.567 6.951 6.328 6.951 3.82 0 6.328-2.805 6.328-6.951v-3.417h-6.328z"/><path d="m111.247 44.22c-.001.556.106 1.106.317 1.618s.521.975.911 1.362.852.69 1.359.89c.507.201 1.048.295 1.592.277 2.388 0 3.641-1.158 3.641-3.354.009-.753-.245-1.485-.715-2.065-.469-.581-1.125-.973-1.851-1.106l-3.164-.853c-1.106-.277-2.082-.941-2.758-1.877s-1.01-2.085-.943-3.246c0-3.11 2.149-5.183 5.373-5.183 3.701 0 5.313 2.622 5.671 5.244h-1.85c-.418-2.195-1.795-3.354-3.761-3.354-2.149 0-3.522 1.281-3.522 3.292-.034.755.192 1.498.639 2.1.448.602 1.088 1.024 1.809 1.193l3.283.917c1.1.276 2.073.929 2.757 1.85.685.921 1.039 2.055 1.004 3.21 0 3.232-2.149 5.245-5.551 5.245-4.242 0-5.969-3.293-6.03-6.037z"/><path d="m138.886 44.22c-.002.556.106 1.106.317 1.618s.521.975.911 1.362.852.69 1.359.89c.507.201 1.048.295 1.592.277 2.387 0 3.641-1.158 3.641-3.354.008-.753-.245-1.485-.715-2.066-.47-.58-1.126-.972-1.852-1.105l-3.164-.853c-1.106-.277-2.082-.941-2.758-1.877s-1.01-2.085-.943-3.246c0-3.11 2.149-5.183 5.373-5.183 3.701 0 5.313 2.622 5.671 5.244h-1.85c-.418-2.195-1.795-3.354-3.761-3.354-2.148 0-3.521 1.281-3.521 3.292-.035.755.191 1.498.638 2.1.448.602 1.088 1.024 1.809 1.193l3.283.917c1.1.276 2.073.929 2.757 1.85.685.921 1.039 2.055 1.004 3.21 0 3.232-2.149 5.245-5.551 5.245-4.242 0-5.969-3.293-6.03-6.037z"/></g></g></svg>