<?xml version="1.0" encoding="utf-8"?>
<!-- Generator: Adobe Illustrator 27.7.0, SVG Export Plug-In . SVG Version: 6.00 Build 0)  -->
<svg version="1.1" id="TB_x5F_Logo_x5F_Horizontal_x5F_RGB"
	 xmlns="http://www.w3.org/2000/svg" xmlns:xlink="http://www.w3.org/1999/xlink" x="0px" y="0px" viewBox="0 0 758.9 267.2"
	 style="enable-background:new 0 0 758.9 267.2;" xml:space="preserve">
<style type="text/css">
	.st0{fill:#FFFFFF;}
	.st1{fill:#FFFFFF;}
</style>
<g>
	<path class="st0" d="M168,173.7h-27.2c-0.2,0-0.4-0.2-0.4-0.4V91.9c0-0.2,0.2-0.4,0.4-0.4h39.6c0.2,0,0.4,0.2,0.4,0.4V161
		C180.8,168,175.1,173.7,168,173.7z"/>
	<path class="st1" d="M93.1,104.3v69.1c0,0.2,0.2,0.4,0.4,0.4h39.6c0.2,0,0.4-0.2,0.4-0.4V91.9c0-0.2-0.2-0.4-0.4-0.4h-27.2
		C98.8,91.6,93.1,97.3,93.1,104.3z"/>
	<g>
		<path class="st1" d="M245.2,106.9h-38.8c-0.3,0-0.5,0.2-0.5,0.5v7.6c0,0.3,0.2,0.5,0.5,0.5h14.7v42.2c0,0.3,0.2,0.5,0.5,0.5h8.3
			c0.3,0,0.5-0.2,0.5-0.5v-42.2h14.7c0.3,0,0.5-0.2,0.5-0.5v-7.6C245.7,107.1,245.5,106.9,245.2,106.9z"/>
		<path class="st1" d="M290.8,106.9c-0.1,0-0.1,0-0.2,0h-8.3c-0.1,0-0.3,0.1-0.4,0.2c-0.1,0.1-0.2,0.2-0.2,0.4V127h-21.1v-19.6
			c0-0.1-0.1-0.3-0.2-0.4c-0.1-0.1-0.2-0.2-0.4-0.2h-8.3c-0.1,0-0.3,0.1-0.4,0.2c-0.1,0.1-0.2,0.2-0.2,0.4v50.4
			c0,0.1,0.1,0.3,0.2,0.4c0.1,0.1,0.2,0.2,0.4,0.2h8.3c0.1,0,0.3-0.1,0.4-0.2c0.1-0.1,0.2-0.2,0.2-0.4v-21.9h21.1v21.9
			c0,0.1,0.1,0.3,0.2,0.4c0.1,0.1,0.2,0.2,0.4,0.2h8.3c0.1,0,0.1,0,0.2,0c0.2-0.1,0.3-0.3,0.3-0.5v-50.4
			C291.1,107.2,291,107,290.8,106.9z"/>
		<path class="st1" d="M339.3,130.8c0-0.5,0-1,0-1.5c0-0.1,0-0.3,0-0.4c0-0.4,0-0.7-0.1-1.1c0-0.2,0-0.4,0-0.6c0-0.2,0-0.5-0.1-0.7
			c0-0.3-0.1-0.6-0.1-0.8c0-0.2,0-0.3-0.1-0.5c0-0.3-0.1-0.6-0.1-0.9c0-0.1,0-0.3-0.1-0.4c-0.1-0.3-0.1-0.6-0.2-0.9
			c0-0.1-0.1-0.3-0.1-0.4c-0.1-0.3-0.1-0.6-0.2-0.9c-0.3-1-0.6-2.1-1-3c0,0,0,0,0,0c-0.3-0.8-0.7-1.6-1.2-2.4c0,0,0,0,0,0
			c-0.4-0.8-0.9-1.5-1.5-2.2c0,0,0,0,0,0c-0.5-0.7-1.1-1.4-1.8-2c-0.2-0.2-0.4-0.3-0.6-0.5c-0.3-0.3-0.6-0.6-0.9-0.8
			c-0.3-0.2-0.6-0.4-0.9-0.6c-0.3-0.2-0.5-0.4-0.8-0.5c-0.3-0.2-0.6-0.4-1-0.5c-0.3-0.2-0.5-0.3-0.8-0.5c-0.3-0.2-0.6-0.3-1-0.4
			c-0.3-0.1-0.6-0.3-0.9-0.4c-0.3-0.1-0.7-0.2-1-0.3c-0.3-0.1-0.6-0.2-1-0.3c-0.4-0.1-0.7-0.2-1.1-0.2c-0.3-0.1-0.6-0.2-0.9-0.2
			c-0.5-0.1-0.9-0.1-1.4-0.2c-0.2,0-0.4-0.1-0.7-0.1c-0.7-0.1-1.4-0.1-2.1-0.1c-0.7,0-1.4,0-2.1,0.1c-0.2,0-0.4,0.1-0.7,0.1
			c-0.5,0.1-0.9,0.1-1.4,0.2c-0.3,0.1-0.6,0.1-0.9,0.2c-0.4,0.1-0.7,0.2-1.1,0.2c-0.3,0.1-0.6,0.2-0.9,0.3c-0.3,0.1-0.7,0.2-1,0.3
			c-0.3,0.1-0.6,0.3-0.9,0.4c-0.3,0.1-0.7,0.3-1,0.4c-0.3,0.1-0.5,0.3-0.8,0.4c-0.3,0.2-0.6,0.4-1,0.6c-0.3,0.2-0.5,0.4-0.8,0.5
			c-0.3,0.2-0.6,0.4-0.9,0.6c-0.3,0.3-0.6,0.5-0.9,0.8c-0.2,0.2-0.4,0.3-0.6,0.5c-0.7,0.7-1.2,1.3-1.8,2c0,0,0,0,0,0
			c-0.6,0.7-1,1.5-1.5,2.2c0,0,0,0,0,0c-0.5,0.8-0.8,1.6-1.2,2.4c0,0,0,0,0,0c-0.2,0.5-0.4,1-0.5,1.5c-0.2,0.5-0.3,1-0.4,1.5
			c-0.1,0.3-0.1,0.6-0.2,0.9c0,0.1-0.1,0.3-0.1,0.4c-0.1,0.3-0.1,0.6-0.2,0.9c0,0.1,0,0.3-0.1,0.4c0,0.3-0.1,0.6-0.1,0.9
			c0,0.2,0,0.3-0.1,0.5c0,0.3-0.1,0.6-0.1,0.8c0,0.2,0,0.5-0.1,0.7c0,0.2,0,0.4,0,0.6c0,0.4,0,0.7-0.1,1.1c0,0.1,0,0.3,0,0.4
			c0,0.5,0,1,0,1.5c0,0,0,0.1,0,0.1c0,0.6,0,1.2,0,1.8c0,3.2,0.1,6.2,0.6,9c0,0.1,0,0.1,0,0.2c0.1,0.4,0.1,0.7,0.2,1.1
			c0,0.2,0.1,0.3,0.1,0.5c0.1,0.3,0.1,0.5,0.2,0.8c0.1,0.2,0.1,0.5,0.2,0.7c0.1,0.2,0.1,0.3,0.2,0.5c0.1,0.3,0.2,0.6,0.3,0.9
			c0,0.1,0.1,0.2,0.1,0.3c0.1,0.3,0.3,0.7,0.5,1c0,0.1,0,0.1,0.1,0.2c0.2,0.4,0.4,0.7,0.5,1.1c0,0,0,0.1,0.1,0.1
			c0.2,0.3,0.4,0.7,0.6,1c0,0.1,0.1,0.1,0.1,0.2c0.2,0.3,0.4,0.6,0.6,0.9c0.1,0.1,0.1,0.2,0.2,0.3c0.2,0.2,0.4,0.4,0.5,0.7
			c0.1,0.1,0.2,0.3,0.4,0.4c0.1,0.1,0.2,0.2,0.2,0.3c0.2,0.3,0.5,0.5,0.7,0.8c0.2,0.2,0.4,0.3,0.6,0.5c0.3,0.3,0.6,0.6,0.9,0.8
			c0.3,0.2,0.6,0.4,0.9,0.6c0.3,0.2,0.5,0.4,0.8,0.5c0.3,0.2,0.6,0.4,0.9,0.5c0.3,0.2,0.5,0.3,0.8,0.5c0.3,0.2,0.6,0.3,1,0.4
			c0.3,0.1,0.6,0.3,0.9,0.4c0.3,0.1,0.7,0.2,1,0.3c0.3,0.1,0.6,0.2,1,0.3c0.3,0.1,0.7,0.2,1.1,0.2c0.3,0.1,0.6,0.2,0.9,0.2
			c0.4,0.1,0.9,0.1,1.4,0.2c0.2,0,0.5,0.1,0.7,0.1c0.7,0.1,1.4,0.1,2.1,0.1c0.7,0,1.4,0,2.1-0.1c0.2,0,0.5-0.1,0.7-0.1
			c0.5-0.1,0.9-0.1,1.4-0.2c0.3-0.1,0.6-0.1,0.9-0.2c0.4-0.1,0.7-0.1,1-0.2c0.3-0.1,0.6-0.2,1-0.3c0.3-0.1,0.7-0.2,1-0.3
			c0.3-0.1,0.6-0.3,0.9-0.4c0.3-0.1,0.7-0.3,1-0.4c0.3-0.1,0.5-0.3,0.8-0.5c0.3-0.2,0.6-0.3,0.9-0.5c0.3-0.2,0.5-0.4,0.8-0.5
			c0.3-0.2,0.6-0.4,0.9-0.6c0.3-0.3,0.6-0.6,0.9-0.8c0.2-0.2,0.4-0.3,0.6-0.5c0.3-0.3,0.5-0.5,0.7-0.8c0.1-0.1,0.2-0.2,0.2-0.3
			c0.1-0.1,0.2-0.3,0.4-0.4c0.2-0.2,0.4-0.4,0.5-0.7c0.1-0.1,0.1-0.2,0.2-0.3c0.2-0.3,0.4-0.6,0.6-0.9c0-0.1,0.1-0.1,0.1-0.2
			c0.2-0.3,0.4-0.7,0.6-1c0,0,0-0.1,0.1-0.1c0.2-0.3,0.4-0.7,0.5-1.1c0-0.1,0-0.1,0.1-0.2c0.2-0.3,0.3-0.7,0.5-1
			c0-0.1,0.1-0.2,0.1-0.3c0.1-0.3,0.2-0.6,0.3-0.9c0.1-0.2,0.1-0.3,0.2-0.5c0.1-0.2,0.2-0.5,0.2-0.7c0.1-0.3,0.1-0.5,0.2-0.8
			c0-0.2,0.1-0.3,0.1-0.5c0.1-0.4,0.1-0.7,0.2-1.1c0-0.1,0-0.1,0-0.2c0.5-2.8,0.6-5.8,0.6-9C339.4,132,339.4,131.4,339.3,130.8
			C339.4,130.8,339.3,130.8,339.3,130.8z M329.1,141.5c-0.1,0.3-0.1,0.6-0.2,0.9c-0.1,0.4-0.3,0.8-0.4,1.2c-0.1,0.2-0.1,0.4-0.2,0.6
			c-0.2,0.5-0.5,0.9-0.7,1.4c-0.1,0.1-0.1,0.2-0.2,0.3c-0.2,0.3-0.4,0.5-0.5,0.8c-0.2,0.2-0.4,0.5-0.6,0.7c-0.3,0.3-0.5,0.5-0.8,0.8
			c-0.2,0.2-0.4,0.3-0.6,0.5c-0.1,0.1-0.1,0.1-0.2,0.2c-0.9,0.6-1.9,1.1-3,1.4c0,0,0,0-0.1,0c-0.3,0.1-0.6,0.2-0.8,0.2
			c-0.1,0-0.2,0.1-0.3,0.1c-0.2,0-0.4,0.1-0.6,0.1c-0.2,0-0.4,0.1-0.5,0.1c-0.1,0-0.1,0-0.2,0c-0.3,0-0.6,0-1,0c-0.3,0-0.6,0-1,0
			c-0.1,0-0.1,0-0.2,0c-0.2,0-0.4-0.1-0.5-0.1c-0.2,0-0.4-0.1-0.6-0.1c-0.1,0-0.2,0-0.3-0.1c-0.3-0.1-0.6-0.1-0.8-0.2c0,0,0,0-0.1,0
			c-1.1-0.3-2.1-0.8-3-1.4c-0.1,0-0.1-0.1-0.2-0.2c-0.2-0.2-0.5-0.3-0.7-0.5c-0.3-0.2-0.5-0.5-0.8-0.8c-0.4-0.5-0.8-1-1.2-1.5
			c-0.1-0.1-0.1-0.2-0.2-0.3c-0.3-0.4-0.5-0.9-0.7-1.4c-0.1-0.2-0.1-0.4-0.2-0.6c-0.2-0.4-0.3-0.8-0.4-1.2c-0.1-0.3-0.2-0.6-0.2-1
			c-0.1-0.3-0.2-0.6-0.2-0.9c-0.1-0.5-0.2-0.9-0.2-1.4c0-0.2-0.1-0.3-0.1-0.5c-0.1-0.6-0.1-1.2-0.2-1.8c0-0.1,0-0.1,0-0.2
			c0-0.6-0.1-1.2-0.1-1.8c0-0.1,0-0.2,0-0.3c0-0.4,0-0.9,0-1.3c0-0.2,0-0.4,0-0.6c0-0.2,0-0.4,0-0.6c0-0.4,0-0.9,0-1.3
			c0-0.1,0-0.2,0-0.3c0-0.6,0-1.1,0.1-1.7c0-0.1,0-0.2,0-0.4c0-0.5,0.1-1.1,0.1-1.6c0-0.3,0.1-0.5,0.1-0.7c0.1-0.4,0.1-0.8,0.2-1.2
			c0.1-0.4,0.2-0.8,0.3-1.2c0.1-0.2,0.1-0.5,0.2-0.7c0.1-0.5,0.3-0.9,0.5-1.4c0.1-0.1,0.1-0.3,0.2-0.4c0.2-0.5,0.5-1,0.8-1.4
			c0-0.1,0.1-0.2,0.1-0.2c0.3-0.5,0.7-1,1.2-1.5c0.3-0.3,0.5-0.5,0.8-0.8c0.2-0.2,0.4-0.3,0.7-0.5c0.1,0,0.1-0.1,0.2-0.2
			c0.9-0.6,1.9-1.1,3-1.4c0,0,0,0,0,0c0.3-0.1,0.6-0.2,0.9-0.2c0.1,0,0.2,0,0.3-0.1c0.2,0,0.4-0.1,0.6-0.1c0.2,0,0.3-0.1,0.5-0.1
			c0.1,0,0.1,0,0.2,0c0.3,0,0.6,0,0.9,0c0.3,0,0.6,0,0.9,0c0.1,0,0.1,0,0.2,0c0.2,0,0.3,0.1,0.5,0.1c0.2,0,0.4,0.1,0.6,0.1
			c0.1,0,0.2,0,0.3,0.1c0.3,0.1,0.6,0.1,0.9,0.2c0,0,0,0,0,0c1.1,0.3,2.1,0.8,3,1.4c0.1,0.1,0.1,0.1,0.2,0.2
			c0.2,0.2,0.4,0.3,0.7,0.5c0.3,0.2,0.5,0.5,0.8,0.8c0.4,0.5,0.8,1,1.2,1.5c0,0.1,0.1,0.2,0.1,0.2c0.3,0.5,0.5,0.9,0.8,1.4
			c0.1,0.1,0.1,0.3,0.2,0.4c0.2,0.5,0.4,0.9,0.5,1.4c0.1,0.2,0.1,0.5,0.2,0.7c0.1,0.4,0.2,0.8,0.3,1.2c0.1,0.4,0.1,0.8,0.2,1.2
			c0,0.2,0.1,0.5,0.1,0.7c0.1,0.5,0.1,1.1,0.1,1.6c0,0.1,0,0.2,0,0.4c0,0.6,0.1,1.1,0.1,1.7c0,0.1,0,0.2,0,0.3c0,0.4,0,0.9,0,1.3
			c0,0.2,0,0.4,0,0.6c0,0.2,0,0.4,0,0.6c0,0.4,0,0.9,0,1.3c0,0.1,0,0.2,0,0.3c0,0.6,0,1.2-0.1,1.8c0,0.1,0,0.1,0,0.2
			c0,0.6-0.1,1.2-0.2,1.8c0,0.2-0.1,0.3-0.1,0.5c-0.1,0.5-0.1,0.9-0.2,1.4C329.2,140.9,329.2,141.2,329.1,141.5z"/>
		<path class="st1" d="M396.1,106.9L396.1,106.9H385c-0.2,0-0.4,0.1-0.5,0.3l-13.4,36.3l-5.8-15.7l-7.6-20.6
			c-0.1-0.2-0.3-0.3-0.5-0.3h-11.7c-0.3,0-0.5,0.2-0.5,0.5v50.4c0,0.3,0.2,0.5,0.5,0.5h8c0.3,0,0.5-0.2,0.5-0.5v-36.6l6.4,17.6
			l6.7,18.5c0.1,0.2,0.3,0.4,0.5,0.4h6.2c0.2,0,0.4-0.1,0.5-0.3l13.2-35.6l0,17.5v18.7c0,0.1,0,0.1,0,0.2c0.1,0.2,0.3,0.3,0.5,0.3h0
			h8h0c0.1,0,0.3-0.1,0.4-0.2c0.1-0.1,0.2-0.2,0.2-0.4v-50.4c0-0.1-0.1-0.3-0.2-0.4C396.4,106.9,396.2,106.9,396.1,106.9z"/>
		<path class="st1" d="M489,139c-0.5-1.4-1.2-2.7-2.2-3.9c0,0-0.1-0.1-0.1-0.1c-0.4-0.4-0.8-0.8-1.2-1.2c-0.1,0-0.1-0.1-0.2-0.1
			c-0.4-0.3-0.8-0.7-1.3-1c-0.2-0.2-0.5-0.3-0.7-0.4c-0.3-0.2-0.6-0.4-0.9-0.5c0.5-0.2,1-0.5,1.5-0.8c0.3-0.2,0.5-0.4,0.8-0.7
			c0.2-0.1,0.3-0.3,0.5-0.4c0.3-0.3,0.6-0.6,0.8-1c0.1-0.1,0.2-0.2,0.3-0.3c0.5-0.7,1-1.5,1.3-2.3c0.1-0.2,0.2-0.4,0.3-0.6
			c0.2-0.4,0.3-0.9,0.4-1.3c0-0.1,0-0.1,0.1-0.2c0.1-0.5,0.2-1,0.3-1.5c0-0.1,0-0.1,0-0.2c0.1-0.6,0.1-1.1,0.1-1.6
			c0-4.4-2.2-8.7-6-11.2c-0.1,0-0.1-0.1-0.2-0.1c-0.4-0.2-0.7-0.4-1.1-0.6c-0.1-0.1-0.3-0.1-0.4-0.2c-0.3-0.2-0.6-0.3-1-0.4
			c-0.1-0.1-0.3-0.1-0.4-0.1c-0.3-0.1-0.7-0.2-1-0.3c-0.1,0-0.3-0.1-0.4-0.1c-0.3-0.1-0.7-0.2-1-0.3c-0.2,0-0.4-0.1-0.6-0.1
			c-0.3-0.1-0.6-0.1-0.9-0.2c-0.3,0-0.5-0.1-0.8-0.1c-0.2,0-0.5-0.1-0.7-0.1c-0.4,0-0.8-0.1-1.2-0.1c-0.2,0-0.3,0-0.5,0
			c-0.6,0-1.2,0-1.8,0h-19.9c-0.1,0-0.3,0.1-0.4,0.2c-0.1,0.1-0.2,0.2-0.2,0.4v50.5c0,0.1,0.1,0.3,0.2,0.4c0.1,0.1,0.2,0.2,0.4,0.2
			h19.9c0.7,0,1.3,0,2,0c0,0,0.1,0,0.1,0c0.6,0,1.2-0.1,1.7-0.1c0.2,0,0.3,0,0.5-0.1c0.4,0,0.8-0.1,1.3-0.1c0.3,0,0.6-0.1,0.9-0.2
			c0.3,0,0.5-0.1,0.8-0.1c0.4-0.1,0.8-0.2,1.2-0.3c0.2,0,0.3-0.1,0.5-0.1c0.4-0.1,0.9-0.3,1.3-0.5c0.1,0,0.2-0.1,0.3-0.1
			c0.4-0.2,0.8-0.4,1.2-0.6c0.1-0.1,0.2-0.1,0.3-0.2c0.4-0.2,0.8-0.5,1.2-0.8c0.1-0.1,0.2-0.1,0.3-0.2c0.3-0.2,0.5-0.4,0.7-0.6
			c0.2-0.2,0.4-0.3,0.5-0.5c0.3-0.3,0.6-0.6,0.8-0.9c0.1-0.1,0.2-0.2,0.3-0.3c0.3-0.4,0.6-0.8,0.8-1.2c0-0.1,0.1-0.1,0.1-0.2
			c0.4-0.8,0.8-1.6,1.1-2.4c0.1-0.2,0.1-0.4,0.2-0.6c0.1-0.4,0.2-0.8,0.3-1.2c0-0.1,0.1-0.3,0.1-0.4c0.1-0.5,0.2-1,0.2-1.4
			c0-0.1,0-0.1,0-0.2c0.1-0.6,0.1-1.1,0.1-1.7c0-1.1-0.1-2.2-0.4-3.3C489.2,139.7,489.1,139.4,489,139z M476.2,149.1
			c-0.1,0-0.2,0.1-0.3,0.1c-0.2,0.1-0.3,0.1-0.5,0.2c-0.1,0-0.2,0.1-0.2,0.1c-0.2,0.1-0.4,0.1-0.6,0.1c-0.1,0-0.1,0-0.2,0.1
			c-0.2,0-0.4,0.1-0.6,0.1c-0.1,0-0.1,0-0.2,0c-0.2,0-0.4,0.1-0.6,0.1c-0.1,0-0.1,0-0.2,0c-0.2,0-0.5,0-0.7,0c0,0-0.1,0-0.1,0
			c-0.3,0-0.5,0-0.8,0h-11.5v-14.3h11.8c0,0,0.1,0,0.1,0c0.3,0,0.6,0,0.9,0c0.2,0,0.3,0,0.5,0c0.2,0,0.3,0,0.5,0.1
			c0.2,0,0.4,0,0.6,0.1c0,0,0,0,0,0c0.8,0.1,1.6,0.4,2.3,0.7c0,0,0,0,0,0c0.2,0.1,0.4,0.2,0.6,0.3c0,0,0,0,0.1,0
			c0.2,0.1,0.4,0.2,0.6,0.4c0,0,0.1,0,0.1,0.1c0.2,0.1,0.3,0.3,0.5,0.4c0,0,0.1,0.1,0.1,0.1c0.1,0.1,0.2,0.2,0.3,0.4
			c0.1,0.1,0.1,0.1,0.2,0.2c0.1,0.1,0.2,0.2,0.3,0.4c0.1,0.1,0.1,0.2,0.2,0.3c0.1,0.1,0.1,0.2,0.2,0.3c0.1,0.1,0.1,0.2,0.2,0.3
			c0.1,0.1,0.1,0.2,0.1,0.4c0,0.1,0.1,0.2,0.1,0.3c0.1,0.2,0.1,0.5,0.2,0.7c0,0.1,0,0.1,0,0.2c0,0.2,0.1,0.4,0.1,0.7
			c0,0.1,0,0.1,0,0.2c0,0.3,0,0.6,0,0.9c0,0.3,0,0.6-0.1,0.9c0,0,0,0.1,0,0.1c0,0.2-0.1,0.5-0.1,0.7c0,0.1,0,0.1-0.1,0.2
			c-0.1,0.2-0.1,0.4-0.2,0.6c0,0.1-0.1,0.1-0.1,0.2c-0.1,0.2-0.2,0.4-0.3,0.5c0,0.1-0.1,0.1-0.1,0.2c-0.1,0.2-0.2,0.3-0.3,0.5
			c0,0.1-0.1,0.1-0.1,0.2c-0.1,0.1-0.2,0.3-0.3,0.4c-0.1,0.1-0.1,0.1-0.2,0.2c-0.1,0.1-0.2,0.2-0.4,0.3c-0.1,0.1-0.3,0.2-0.4,0.3
			c-0.2,0.1-0.3,0.2-0.5,0.3c-0.2,0.1-0.3,0.2-0.5,0.2C476.5,149,476.3,149,476.2,149.1z M471.2,114.9c0.5,0,1.1,0,1.5,0.1
			c0.1,0,0.1,0,0.2,0c0.4,0.1,0.9,0.1,1.3,0.2c0.1,0,0.2,0,0.2,0.1c0.4,0.1,0.8,0.2,1.1,0.4c0.1,0,0.1,0,0.2,0.1
			c0.4,0.2,0.7,0.3,1,0.5c0,0,0,0,0,0c0.4,0.3,0.7,0.6,1,0.9c0,0,0,0.1,0.1,0.1c0.3,0.3,0.5,0.7,0.7,1.1c0,0,0,0.1,0.1,0.1
			c0.2,0.4,0.3,0.8,0.4,1.3c0,0,0,0.1,0,0.1c0.1,0.5,0.1,1,0.1,1.5c0,0,0,0,0,0c0,0.6-0.1,1.1-0.2,1.6c0,0.2-0.1,0.4-0.2,0.6
			c-0.1,0.3-0.2,0.6-0.3,0.8c-0.1,0.2-0.3,0.4-0.4,0.6c-0.1,0.2-0.2,0.4-0.3,0.5c-0.2,0.3-0.5,0.5-0.8,0.8c-0.4,0.3-0.8,0.5-1.3,0.7
			c-0.1,0.1-0.3,0.1-0.4,0.1c-0.3,0.1-0.6,0.2-0.9,0.3c-0.2,0-0.4,0.1-0.6,0.1c-0.3,0-0.5,0.1-0.8,0.1c-0.4,0-0.8,0-1.2,0.1
			c-0.1,0-0.3,0-0.4,0h-11.8v-12.9L471.2,114.9C471.2,114.9,471.2,114.9,471.2,114.9z"/>
		<path class="st1" d="M534.9,121.1c0-0.5-0.1-0.9-0.2-1.4c0-0.1,0-0.2-0.1-0.2c-0.1-0.4-0.2-0.9-0.3-1.3c0-0.1,0-0.1-0.1-0.2
			c-0.1-0.4-0.3-0.9-0.4-1.3c0,0,0-0.1-0.1-0.1c-0.2-0.4-0.4-0.8-0.6-1.3c0,0,0-0.1-0.1-0.1c-0.2-0.4-0.4-0.8-0.7-1.2
			c0-0.1-0.1-0.1-0.1-0.2c-0.2-0.4-0.5-0.7-0.7-1c-0.1-0.1-0.2-0.2-0.3-0.4c-0.3-0.3-0.6-0.7-0.9-1c-0.3-0.3-0.7-0.6-1-0.9
			c-0.1-0.1-0.2-0.1-0.3-0.2c-0.4-0.3-0.7-0.5-1.1-0.8c-0.1-0.1-0.2-0.1-0.3-0.2c-0.4-0.2-0.8-0.4-1.2-0.6c-0.1-0.1-0.2-0.1-0.3-0.1
			c-0.4-0.2-0.9-0.4-1.3-0.5c-0.1,0-0.2-0.1-0.3-0.1c-0.5-0.2-0.9-0.3-1.4-0.4c-0.1,0-0.3-0.1-0.4-0.1c-0.5-0.1-0.9-0.2-1.5-0.3
			c-0.2,0-0.4-0.1-0.6-0.1c-0.4-0.1-0.9-0.1-1.4-0.2c-0.4,0-0.9,0-1.4-0.1c-0.3,0-0.5,0-0.8,0h-21.2c-0.1,0-0.1,0-0.2,0
			c-0.2,0.1-0.3,0.3-0.3,0.5v50.4c0,0.2,0.1,0.4,0.3,0.5c0.1,0,0.1,0,0.2,0h8.4c0.3,0,0.5-0.2,0.5-0.5v-18.9h11.4l8.4,19.1
			c0.1,0.2,0.3,0.3,0.5,0.3h9c0.1,0,0.2,0,0.2-0.1c0,0,0,0,0,0c0.2-0.1,0.3-0.2,0.3-0.4c0,0,0,0,0,0c0-0.1,0-0.2,0-0.2l-9.1-20.3
			c0,0,0.1,0,0.1,0c0.3-0.1,0.6-0.3,0.9-0.4c0.3-0.1,0.6-0.3,0.9-0.5c0,0,0.1,0,0.1-0.1c1.3-0.7,2.5-1.7,3.4-2.7
			c1-1.1,1.8-2.3,2.4-3.7c0,0,0,0,0-0.1c0.1-0.3,0.2-0.6,0.4-0.8c0-0.1,0.1-0.2,0.1-0.2c0.1-0.2,0.2-0.5,0.2-0.7
			c0-0.1,0.1-0.3,0.1-0.4c0.1-0.2,0.1-0.4,0.1-0.6c0-0.2,0.1-0.4,0.1-0.6c0-0.1,0-0.3,0.1-0.4c0-0.3,0.1-0.5,0.1-0.8
			c0,0,0-0.1,0-0.1c0-0.4,0.1-0.8,0.1-1.2c0-0.4,0-0.8,0-1.2c0-0.5,0-1.1-0.1-1.6C534.9,121.2,534.9,121.1,534.9,121.1z
			 M520.9,129.9C520.8,129.9,520.8,129.9,520.9,129.9c-0.2,0.1-0.4,0.1-0.6,0.2c-0.9,0.2-1.9,0.4-3.1,0.4h-12.5v-15.4h12.3
			c0,0,0,0,0,0c0.6,0,1.1,0.1,1.7,0.1c0.1,0,0.1,0,0.2,0c0.5,0.1,1,0.2,1.5,0.4c0.1,0,0.1,0,0.2,0.1c0.5,0.2,0.9,0.4,1.3,0.6
			c0,0,0.1,0.1,0.1,0.1c0.4,0.3,0.8,0.6,1.2,1c0,0,0,0,0,0c0.3,0.3,0.7,0.7,0.9,1.1c0,0,0,0,0,0.1c0.3,0.4,0.5,0.8,0.7,1.2
			c0,0,0,0.1,0,0.1c0.2,0.4,0.3,0.9,0.4,1.3c0,0,0,0.1,0,0.1c0.1,0.5,0.1,1,0.1,1.5c0,0,0,0,0,0c0,1.2-0.2,2.3-0.6,3.2
			C524.3,127.9,522.9,129.2,520.9,129.9z"/>
		<path class="st1" d="M661.2,130.9C661.2,130.8,661.2,130.8,661.2,130.9c0-0.6,0-1.1,0-1.6c0-0.1,0-0.3,0-0.4c0-0.4,0-0.7-0.1-1.1
			c0-0.2,0-0.4,0-0.6c0-0.2,0-0.5-0.1-0.7c0-0.3-0.1-0.6-0.1-0.8c0-0.2,0-0.3-0.1-0.5c0-0.3-0.1-0.6-0.1-0.9c0-0.1,0-0.3-0.1-0.4
			c-0.1-0.3-0.1-0.6-0.2-0.9c0-0.1-0.1-0.3-0.1-0.4c-0.1-0.3-0.1-0.6-0.2-0.9c-0.3-1-0.6-2.1-1-3c0,0,0,0,0,0
			c-0.3-0.8-0.7-1.6-1.2-2.4c0,0,0,0,0,0c-0.4-0.8-0.9-1.5-1.5-2.2c0,0,0,0,0,0c-0.5-0.7-1.1-1.4-1.8-2c-0.2-0.2-0.4-0.3-0.6-0.5
			c-0.3-0.3-0.6-0.6-0.9-0.8c-0.3-0.2-0.6-0.4-0.9-0.6c-0.3-0.2-0.5-0.4-0.8-0.5c-0.3-0.2-0.6-0.4-0.9-0.5c-0.3-0.2-0.5-0.3-0.8-0.5
			c-0.3-0.2-0.6-0.3-1-0.4c-0.3-0.1-0.6-0.3-0.9-0.4c-0.3-0.1-0.6-0.2-1-0.3c-0.3-0.1-0.6-0.2-1-0.3c-0.3-0.1-0.7-0.2-1.1-0.2
			c-0.3-0.1-0.6-0.2-0.9-0.2c-0.5-0.1-0.9-0.1-1.4-0.2c-0.2,0-0.4-0.1-0.7-0.1c-0.7-0.1-1.4-0.1-2.1-0.1c-0.7,0-1.4,0-2.1,0.1
			c-0.2,0-0.4,0.1-0.7,0.1c-0.5,0.1-0.9,0.1-1.4,0.2c-0.3,0.1-0.6,0.1-0.9,0.2c-0.4,0.1-0.7,0.1-1.1,0.2c-0.3,0.1-0.6,0.2-1,0.3
			c-0.3,0.1-0.7,0.2-1,0.3c-0.3,0.1-0.6,0.3-0.9,0.4c-0.3,0.1-0.6,0.3-1,0.4c-0.3,0.1-0.5,0.3-0.8,0.5c-0.3,0.2-0.6,0.3-0.9,0.5
			c-0.3,0.2-0.5,0.4-0.8,0.5c-0.3,0.2-0.6,0.4-0.9,0.6c-0.3,0.3-0.6,0.6-0.9,0.8c-0.2,0.2-0.4,0.3-0.6,0.5c-0.7,0.7-1.2,1.3-1.8,2
			c0,0,0,0,0,0c-0.6,0.7-1,1.5-1.5,2.2c0,0,0,0,0,0c-0.5,0.8-0.8,1.6-1.2,2.4c0,0,0,0,0,0c-0.4,1-0.7,2-1,3
			c-0.1,0.3-0.1,0.6-0.2,0.9c0,0.1-0.1,0.3-0.1,0.4c-0.1,0.3-0.1,0.6-0.2,0.9c0,0.1,0,0.3-0.1,0.4c0,0.3-0.1,0.6-0.1,0.9
			c0,0.2,0,0.3-0.1,0.5c0,0.3-0.1,0.6-0.1,0.8c0,0.2,0,0.5-0.1,0.7c0,0.2,0,0.4,0,0.6c0,0.4,0,0.7-0.1,1.1c0,0.1,0,0.3,0,0.4
			c0,0.5,0,1,0,1.5c0,0,0,0.1,0,0.1c0,0.6,0,1.2,0,1.8c0,3.2,0.1,6.2,0.6,9c0,0.1,0,0.1,0,0.2c0.1,0.4,0.1,0.7,0.2,1.1
			c0,0.2,0.1,0.3,0.1,0.5c0.1,0.3,0.1,0.5,0.2,0.8c0.1,0.2,0.1,0.5,0.2,0.7c0.1,0.2,0.1,0.4,0.2,0.5c0.1,0.3,0.2,0.6,0.3,0.9
			c0,0.1,0.1,0.2,0.1,0.3c0.1,0.3,0.3,0.7,0.4,1c0,0.1,0.1,0.1,0.1,0.2c0.2,0.4,0.3,0.7,0.5,1c0,0,0,0.1,0.1,0.1
			c0.2,0.3,0.4,0.7,0.6,1c0,0.1,0.1,0.1,0.1,0.2c0.2,0.3,0.4,0.6,0.6,0.9c0.1,0.1,0.1,0.2,0.2,0.3c0.2,0.2,0.4,0.4,0.5,0.7
			c0.1,0.1,0.2,0.3,0.4,0.4c0.1,0.1,0.1,0.2,0.2,0.2c0.2,0.3,0.5,0.5,0.8,0.8c0.2,0.2,0.4,0.3,0.5,0.5c0.3,0.3,0.6,0.6,0.9,0.9
			c0.3,0.2,0.6,0.4,0.9,0.6c0.3,0.2,0.5,0.4,0.8,0.6c0.3,0.2,0.6,0.4,0.9,0.5c0.3,0.2,0.5,0.3,0.8,0.5c0.3,0.2,0.6,0.3,1,0.4
			c0.3,0.1,0.6,0.3,0.9,0.4c0.3,0.1,0.6,0.2,1,0.3c0.3,0.1,0.6,0.2,1,0.3c0.3,0.1,0.7,0.2,1,0.2c0.3,0.1,0.6,0.2,1,0.2
			c0.4,0.1,0.9,0.1,1.4,0.2c0.2,0,0.5,0.1,0.7,0.1c0.7,0.1,1.4,0.1,2.1,0.1s1.4,0,2.1-0.1c0.2,0,0.5-0.1,0.7-0.1
			c0.5-0.1,0.9-0.1,1.4-0.2c0.3-0.1,0.6-0.1,1-0.2c0.3-0.1,0.7-0.1,1-0.2c0.3-0.1,0.6-0.2,1-0.3c0.3-0.1,0.6-0.2,1-0.3
			c0.3-0.1,0.6-0.3,0.9-0.4c0.3-0.1,0.6-0.3,1-0.4c0.3-0.1,0.5-0.3,0.8-0.5c0.3-0.2,0.6-0.3,0.9-0.5c0.3-0.2,0.5-0.4,0.8-0.6
			c0.3-0.2,0.6-0.4,0.9-0.6c0.3-0.3,0.6-0.6,0.9-0.9c0.2-0.2,0.4-0.3,0.5-0.5c0.3-0.3,0.5-0.5,0.7-0.8c0.1-0.1,0.2-0.2,0.2-0.3
			c0.1-0.1,0.2-0.3,0.4-0.4c0.2-0.2,0.4-0.4,0.5-0.7c0.1-0.1,0.1-0.2,0.2-0.3c0.2-0.3,0.4-0.6,0.6-0.9c0-0.1,0.1-0.1,0.1-0.2
			c0.2-0.3,0.4-0.7,0.6-1c0,0,0-0.1,0.1-0.1c0.2-0.3,0.4-0.7,0.5-1c0-0.1,0.1-0.1,0.1-0.2c0.2-0.3,0.3-0.7,0.4-1
			c0-0.1,0.1-0.2,0.1-0.3c0.1-0.3,0.2-0.6,0.3-0.9c0.1-0.2,0.1-0.4,0.2-0.5c0.1-0.2,0.1-0.5,0.2-0.7c0.1-0.3,0.1-0.5,0.2-0.8
			c0-0.2,0.1-0.3,0.1-0.5c0.1-0.4,0.2-0.7,0.2-1.1c0-0.1,0-0.1,0-0.2c0.5-2.8,0.6-5.8,0.6-9C661.2,132,661.2,131.4,661.2,130.9z
			 M650.9,141.5c-0.1,0.3-0.1,0.6-0.2,0.9c-0.1,0.4-0.3,0.8-0.4,1.2c-0.1,0.2-0.1,0.4-0.2,0.6c-0.2,0.5-0.5,0.9-0.7,1.4
			c-0.1,0.1-0.1,0.2-0.2,0.3c-0.3,0.5-0.7,1-1.2,1.5c-0.3,0.3-0.5,0.5-0.8,0.8c-0.2,0.2-0.4,0.3-0.6,0.5c-0.1,0.1-0.1,0.1-0.2,0.2
			c-0.9,0.6-1.9,1.1-3,1.4c0,0,0,0-0.1,0c-0.3,0.1-0.6,0.2-0.8,0.2c-0.1,0-0.2,0.1-0.3,0.1c-0.2,0-0.4,0.1-0.6,0.1
			c-0.2,0-0.4,0.1-0.5,0.1c-0.1,0-0.1,0-0.2,0c-0.3,0-0.6,0-1,0c-0.3,0-0.6,0-1,0c-0.1,0-0.1,0-0.2,0c-0.2,0-0.4-0.1-0.6-0.1
			c-0.2,0-0.4-0.1-0.6-0.1c-0.1,0-0.2-0.1-0.3-0.1c-0.3-0.1-0.5-0.1-0.8-0.2c0,0-0.1,0-0.1,0c-1.1-0.3-2.1-0.8-3-1.4
			c-0.1-0.1-0.2-0.1-0.2-0.2c-0.2-0.2-0.4-0.3-0.6-0.5c-0.3-0.2-0.5-0.5-0.8-0.8c-0.4-0.5-0.8-1-1.2-1.5c-0.1-0.1-0.1-0.2-0.2-0.3
			c-0.3-0.4-0.5-0.9-0.7-1.4c-0.1-0.2-0.1-0.4-0.2-0.6c-0.2-0.4-0.3-0.8-0.4-1.2c-0.1-0.3-0.2-0.6-0.2-1c-0.1-0.3-0.2-0.6-0.2-0.9
			c-0.1-0.5-0.2-1-0.2-1.4c0-0.2-0.1-0.3-0.1-0.5c-0.1-0.6-0.1-1.2-0.2-1.8c0-0.1,0-0.1,0-0.2c0-0.6-0.1-1.2-0.1-1.8
			c0-0.1,0-0.2,0-0.3c0-0.4,0-0.9,0-1.3c0-0.2,0-0.4,0-0.6c0-0.2,0-0.4,0-0.6c0-0.4,0-0.9,0-1.3c0-0.1,0-0.2,0-0.3
			c0-0.6,0-1.1,0.1-1.7c0-0.1,0-0.2,0-0.4c0-0.5,0.1-1.1,0.1-1.6c0-0.2,0.1-0.5,0.1-0.7c0.1-0.4,0.1-0.8,0.2-1.2
			c0.1-0.4,0.2-0.8,0.3-1.1c0.1-0.3,0.1-0.5,0.2-0.8c0.1-0.5,0.3-0.9,0.5-1.4c0.1-0.1,0.1-0.3,0.2-0.4c0.2-0.5,0.5-1,0.8-1.4
			c0-0.1,0.1-0.2,0.1-0.2c0.3-0.5,0.7-1,1.2-1.5c0.3-0.3,0.5-0.5,0.8-0.8c0.2-0.2,0.4-0.3,0.6-0.5c0.1-0.1,0.2-0.1,0.2-0.2
			c0.9-0.6,1.9-1.1,3-1.4c0,0,0.1,0,0.1,0c0.3-0.1,0.6-0.1,0.8-0.2c0.1,0,0.2-0.1,0.3-0.1c0.2,0,0.4-0.1,0.6-0.1
			c0.2,0,0.4-0.1,0.5-0.1c0.1,0,0.1,0,0.2,0c0.3,0,0.6,0,0.9,0c0.3,0,0.6,0,0.9,0c0.1,0,0.1,0,0.2,0c0.2,0,0.3,0.1,0.5,0.1
			c0.2,0,0.4,0.1,0.6,0.1c0.1,0,0.2,0,0.3,0.1c0.3,0.1,0.6,0.1,0.9,0.2c0,0,0,0,0,0c1.1,0.3,2.1,0.8,3,1.4c0.1,0.1,0.1,0.1,0.2,0.2
			c0.2,0.2,0.4,0.3,0.7,0.5c0.3,0.2,0.5,0.5,0.8,0.8c0.4,0.5,0.8,1,1.2,1.5c0,0.1,0.1,0.2,0.1,0.2c0.3,0.5,0.5,0.9,0.8,1.5
			c0.1,0.1,0.1,0.3,0.1,0.4c0.2,0.5,0.4,0.9,0.5,1.4c0.1,0.2,0.1,0.5,0.2,0.7c0.1,0.4,0.2,0.8,0.3,1.2c0.1,0.4,0.1,0.8,0.2,1.2
			c0,0.3,0.1,0.5,0.1,0.8c0.1,0.5,0.1,1.1,0.1,1.6c0,0.1,0,0.3,0,0.4c0,0.6,0.1,1.1,0.1,1.7c0,0.1,0,0.2,0,0.3c0,0.4,0,0.9,0,1.3
			c0,0.2,0,0.4,0,0.6c0,0.2,0,0.4,0,0.6c0,0.4,0,0.9,0,1.3c0,0.1,0,0.2,0,0.3c0,0.6,0,1.2-0.1,1.8c0,0.1,0,0.1,0,0.2
			c0,0.6-0.1,1.2-0.2,1.8c0,0.2-0.1,0.4-0.1,0.5c-0.1,0.5-0.1,0.9-0.2,1.4C651.1,140.9,651,141.2,650.9,141.5z"/>
		<path class="st1" d="M446.4,157.5L446.4,157.5l-17.6-50.2c-0.1-0.2-0.3-0.4-0.5-0.4h-9.5h0c-0.2,0-0.4,0.1-0.5,0.4l-17.6,50.2
			c0,0,0,0,0,0l0,0c0,0.1,0,0.1,0,0.2c0,0.4,0.3,0.6,0.6,0.6c0,0,0,0,0,0l0,0h8.1c0.2,0,0.4-0.1,0.5-0.4l3.2-9.5h20.5l3.2,9.5
			c0.1,0.2,0.3,0.4,0.5,0.4h8.5l0,0c0,0,0,0,0,0c0.4,0,0.6-0.3,0.6-0.6C446.4,157.6,446.4,157.5,446.4,157.5z M427.3,140H416
			l7.3-21.7l3.3,9.7l4.1,12L427.3,140z"/>
		<path class="st1" d="M583,157.5L583,157.5l-17.6-50.2c-0.1-0.2-0.3-0.4-0.5-0.4h-9.5h0c-0.2,0-0.4,0.1-0.5,0.4l-17.6,50.2
			c0,0,0,0,0,0l0,0c0,0.1,0,0.1,0,0.2c0,0.4,0.3,0.6,0.6,0.6c0,0,0,0,0,0l0,0h8.1c0.2,0,0.4-0.1,0.5-0.4l3.2-9.5h20.5l3.2,9.5
			c0.1,0.2,0.3,0.4,0.5,0.4h8.5l0,0c0,0,0,0,0,0c0.4,0,0.6-0.3,0.6-0.6C583.1,157.6,583,157.5,583,157.5z M564,140h-11.3l7.3-21.7
			l3.3,9.7l4.1,12L564,140z"/>
		<path class="st1" d="M618.4,106.9C618.4,106.9,618.4,106.9,618.4,106.9c-0.1,0-0.2-0.1-0.2-0.1h-8.3c-0.2,0-0.4,0.2-0.5,0.4
			L597,146.1l-5.6-17.5l-6.8-21.3l0,0c-0.1-0.3-0.3-0.4-0.6-0.4c0,0,0,0,0,0h-8.6v0c0,0,0,0,0,0c-0.4,0-0.6,0.3-0.6,0.6
			c0,0.1,0,0.1,0,0.2l16.7,50.2c0.1,0.2,0.3,0.4,0.5,0.4h9.5c0.2,0,0.4-0.1,0.5-0.4l16.6-50.4c0-0.1,0-0.1,0-0.2c0,0,0,0,0,0
			C618.6,107.2,618.5,107,618.4,106.9z"/>
	</g>
</g>
</svg>
